<?xml version="1.0" standalone="no"?>
<!DOCTYPE svg PUBLIC "-//W3C//DTD SVG 20010904//EN"
 "http://www.w3.org/TR/2001/REC-SVG-20010904/DTD/svg10.dtd">
<svg version="1.0" xmlns="http://www.w3.org/2000/svg"
 width="534.000000pt" height="449.000000pt" viewBox="0 0 534.000000 449.000000"
 preserveAspectRatio="xMidYMid meet">
<metadata>
Created by potrace 1.16, written by Peter Selinger 2001-2019
</metadata>
<g transform="translate(0.000000,449.000000) scale(0.100000,-0.100000)"
fill="#000000" stroke="none">
<path d="M3314 4250 c-5 -25 -9 -28 -25 -20 -28 16 -34 12 -14 -10 17 -19 17
-20 1 -20 -9 0 -14 5 -11 10 3 6 -1 10 -9 10 -8 0 -18 -4 -21 -10 -10 -17 -25
-11 -25 10 0 23 -18 27 -26 5 -7 -16 -44 -21 -44 -6 0 5 -21 10 -47 10 -509 1
-680 7 -675 21 4 11 1 10 -12 -3 -12 -11 -26 -15 -40 -12 -17 5 -18 4 -6 -5
12 -9 3 -10 -37 -5 -34 3 -53 2 -53 -5 0 -5 -12 -10 -27 -9 -16 0 -22 3 -15 6
19 8 14 23 -8 23 -11 0 -20 -3 -20 -8 0 -4 -10 -13 -21 -21 -18 -11 -23 -11
-30 1 -6 9 -11 10 -16 2 -10 -13 -118 -35 -138 -28 -8 4 -15 1 -15 -5 0 -6 -7
-11 -15 -11 -8 0 -15 5 -15 12 0 6 -7 5 -18 -5 -15 -13 -21 -14 -31 -4 -11 9
-14 9 -18 0 -6 -18 -23 -16 -23 2 0 8 -4 15 -9 15 -5 0 -8 -8 -7 -17 0 -11 -5
-17 -13 -15 -8 2 -17 -2 -21 -7 -3 -6 -22 -13 -40 -17 -26 -4 -31 -3 -20 5 8
5 11 13 8 16 -10 10 -28 -4 -28 -22 0 -9 -6 -13 -15 -9 -8 3 -15 1 -15 -5 0
-6 -7 -9 -15 -5 -8 3 -15 0 -15 -6 0 -7 -6 -4 -13 6 -7 10 -22 16 -33 14 -24
-4 -49 -27 -39 -36 4 -4 10 -1 12 6 3 6 17 12 31 12 26 -1 26 -1 -7 -15 -35
-16 -51 -13 -51 11 0 8 -4 14 -10 14 -5 0 -10 -4 -10 -10 0 -5 -7 -10 -15 -10
-9 0 -12 -6 -8 -17 4 -10 8 -12 10 -6 3 7 11 9 19 6 11 -4 3 -11 -23 -23 -39
-17 -97 -34 -99 -28 0 2 -8 -5 -18 -15 -20 -20 -43 -13 -26 8 7 8 7 15 1 19
-13 8 -24 -11 -17 -29 3 -10 -6 -20 -24 -30 -16 -9 -32 -15 -35 -15 -3 0 -18
-6 -33 -13 -15 -8 -35 -13 -45 -12 -9 2 -15 0 -13 -4 3 -4 -20 -19 -50 -33
-30 -15 -52 -23 -49 -17 4 5 1 9 -4 9 -6 0 -11 -6 -11 -12 0 -7 -11 -21 -24
-30 -23 -17 -24 -17 -30 8 -5 18 -12 24 -22 20 -9 -3 -20 -6 -25 -6 -5 0 -9
-4 -9 -10 0 -5 7 -10 15 -10 8 0 15 -4 15 -10 0 -5 -4 -10 -10 -10 -5 0 -10
-5 -10 -11 0 -5 6 -7 13 -4 6 3 1 -2 -13 -12 -13 -10 -39 -31 -57 -47 -18 -15
-33 -23 -33 -17 0 6 5 11 10 11 6 0 10 5 10 10 0 6 -8 5 -20 -2 -11 -7 -18
-19 -15 -27 4 -9 0 -11 -11 -7 -11 4 -15 2 -11 -8 5 -12 -87 -114 -98 -108
-14 7 -18 0 -5 -8 8 -5 10 -10 4 -10 -7 0 -14 -9 -17 -21 -3 -12 -10 -18 -16
-14 -7 3 -8 0 -5 -9 8 -21 -13 -20 -24 0 -11 19 -32 10 -32 -13 0 -9 6 -13 15
-10 8 4 17 1 21 -5 5 -7 2 -8 -6 -3 -10 6 -12 4 -7 -9 5 -14 3 -17 -8 -12 -18
6 -45 -2 -45 -15 0 -5 12 -7 28 -4 24 6 25 5 10 -8 -10 -8 -15 -17 -11 -21 4
-4 0 -4 -10 0 -9 3 -17 2 -17 -4 0 -6 5 -12 12 -14 8 -3 5 -11 -8 -24 -11 -11
-18 -26 -16 -32 2 -7 -2 -12 -10 -12 -10 0 -9 -3 2 -10 8 -5 10 -10 4 -10 -6
0 -12 -11 -12 -25 0 -35 -9 -42 -26 -19 -8 10 -18 16 -22 12 -4 -4 4 -17 17
-28 17 -15 20 -23 11 -27 -9 -3 -10 -9 -2 -18 13 -16 3 -45 -17 -45 -10 0 -12
-6 -7 -22 3 -13 11 -24 15 -26 14 -5 11 -50 -3 -56 -9 -3 -7 -8 6 -17 15 -9
16 -13 5 -20 -10 -6 -11 -11 -3 -16 6 -5 14 -18 18 -30 6 -18 4 -22 -8 -17 -9
3 -16 1 -16 -5 0 -6 9 -11 19 -11 10 0 21 -7 25 -15 3 -8 0 -15 -6 -15 -7 0
-5 -5 4 -12 17 -15 58 -81 58 -94 0 -5 -4 -3 -9 5 -5 7 -14 10 -20 7 -21 -13
-11 -26 19 -26 33 0 38 -11 15 -30 -9 -7 -13 -15 -10 -18 3 -3 11 3 19 13 9
12 15 15 20 7 4 -7 2 -12 -3 -12 -6 0 -11 -5 -11 -10 0 -6 7 -10 16 -8 9 2 27
-11 41 -29 23 -30 23 -31 4 -26 -17 4 -21 1 -21 -21 0 -25 20 -39 20 -13 0 6
5 4 11 -5 5 -10 20 -17 32 -17 17 1 18 2 5 6 -10 2 -18 12 -18 20 0 13 5 12
25 -7 30 -28 33 -60 6 -60 -11 0 -22 6 -24 13 -4 9 -8 9 -15 -2 -11 -15 -62
-24 -62 -10 0 5 6 9 13 10 6 0 3 4 -8 8 -14 6 -22 4 -27 -8 -6 -14 -7 -13 -7
3 -1 14 -6 17 -25 12 -14 -3 -28 -2 -31 4 -13 21 -25 9 -24 -22 1 -18 3 -25 6
-15 2 9 8 17 13 17 7 0 4 -68 -6 -97 -4 -16 -160 -18 -169 -3 -4 6 -14 9 -23
6 -10 -3 -72 -6 -139 -8 -78 -1 -124 -6 -124 -12 -1 -6 -2 -18 -3 -26 -2 -27
-33 -63 -48 -54 -11 6 -11 5 0 -8 10 -12 10 -18 -2 -27 -8 -7 -17 -23 -20 -37
-4 -14 -11 -22 -17 -19 -5 4 -8 1 -7 -7 2 -8 -5 -12 -17 -11 -12 1 -26 -7 -33
-17 -7 -12 -8 -20 -2 -20 5 0 10 5 10 10 0 6 8 10 18 10 10 0 13 -3 6 -8 -6
-4 -11 -14 -12 -22 0 -8 -3 -26 -7 -40 -4 -14 11 8 33 47 43 79 79 130 125
181 l31 32 218 0 218 0 0 56 0 56 28 -8 c39 -13 261 -9 295 5 36 14 26 31 -18
31 -28 0 -43 11 -111 84 -85 90 -132 160 -172 258 -48 120 -40 301 19 422 34
69 143 226 161 232 10 3 17 9 15 13 -3 11 93 92 172 145 412 275 1093 429
1756 397 121 -6 274 -17 339 -26 66 -9 126 -13 133 -11 9 4 11 14 7 31 -5 20
-3 24 10 19 13 -5 16 1 16 35 0 48 -8 54 -16 11z"/>
<path d="M3498 3923 c-27 -9 -48 -21 -48 -27 1 -6 -1 -199 -3 -429 -3 -293 -8
-422 -16 -430 -6 -6 -11 -45 -11 -90 l0 -78 43 3 c36 3 43 7 45 27 2 13 12 26
23 28 25 7 24 20 -2 28 -14 5 -18 12 -13 23 4 10 9 30 12 47 5 28 4 29 -13 11
-18 -18 -19 -18 -32 0 -12 17 -13 17 -13 0 0 -9 -4 -15 -9 -11 -6 3 -8 13 -6
23 1 9 6 80 10 157 4 77 11 145 16 152 6 7 6 13 1 17 -14 8 -1 148 16 174 8
12 10 22 4 22 -5 0 -13 7 -16 16 -4 11 -2 15 8 11 18 -7 25 20 14 52 -8 23 -8
24 34 18 24 -4 54 -9 68 -12 14 -4 4 3 -22 15 -40 19 -48 28 -61 68 -11 31
-12 49 -6 53 6 3 10 9 10 13 -2 17 0 18 17 5 9 -8 31 -16 47 -18 29 -2 74 -35
64 -45 -3 -3 -29 -2 -58 3 -64 10 -53 -6 22 -33 60 -22 92 -53 75 -73 -8 -10
-8 -17 0 -25 20 -20 13 -38 -12 -38 -37 0 -39 -14 -6 -39 17 -12 30 -29 30
-37 0 -15 -2 -15 -25 0 -27 18 -90 22 -80 6 3 -5 14 -10 22 -10 25 0 83 -43
83 -62 0 -13 -6 -15 -27 -9 -15 4 -44 3 -65 -3 -27 -7 -47 -7 -71 2 -40 14
-57 15 -57 3 0 -5 9 -7 20 -4 15 4 18 1 16 -13 -7 -37 11 -59 63 -78 58 -20
68 -31 51 -51 -9 -11 -4 -16 30 -25 31 -8 40 -15 36 -26 -3 -9 1 -22 9 -30 12
-13 15 -12 25 7 9 16 18 19 37 14 66 -16 80 -17 80 -3 0 7 3 26 7 41 5 23 3
27 -14 27 -12 0 -18 5 -15 10 8 13 95 13 95 1 0 -5 -10 -13 -22 -17 -19 -6
-20 -7 -4 -16 10 -5 20 -7 23 -4 15 14 21 109 18 286 -3 232 -12 263 -83 312
-82 56 -147 78 -237 77 -45 0 -101 -7 -127 -16z"/>
<path d="M2915 3893 c6 -5 29 -24 52 -42 40 -30 44 -31 107 -25 48 5 66 4 66
-5 0 -7 -4 -10 -9 -7 -5 3 -13 0 -19 -7 -8 -9 -3 -15 23 -23 32 -10 33 -10 23
9 -8 15 -7 18 3 12 9 -6 11 -3 6 8 -5 13 0 17 21 19 27 1 80 1 95 -1 4 -1 7
-69 7 -151 0 -115 -3 -150 -12 -149 -7 1 -22 1 -32 0 -18 -1 -18 -2 -3 -19 10
-10 17 -23 17 -29 0 -15 -29 -37 -38 -28 -4 4 -1 10 6 12 34 13 -11 63 -57 63
l-29 0 0 -87 c-1 -49 -4 -142 -8 -207 -4 -81 -3 -117 4 -112 12 7 22 -16 22
-55 0 -34 -27 -51 -41 -27 -6 11 -20 14 -49 12 -22 -2 -52 1 -65 6 -22 8 -27
7 -34 -12 -11 -30 -2 -68 18 -69 10 0 8 -4 -8 -10 -20 -8 -23 -14 -17 -41 3
-17 2 -36 -4 -43 -8 -9 13 -12 93 -10 l104 3 -1 -29 c-1 -17 -7 -29 -14 -29
-8 0 -22 -10 -32 -22 -12 -15 -31 -23 -56 -25 -81 -5 -108 -10 -112 -21 -2 -8
14 -12 50 -12 38 0 49 -3 38 -10 -13 -8 -12 -10 3 -10 9 0 17 5 17 11 0 8 5 8
15 -1 12 -10 15 -10 15 1 0 11 2 11 8 1 7 -10 24 -10 78 -2 91 13 94 13 94 -5
0 -8 7 -15 15 -15 8 0 15 -4 15 -10 0 -5 5 -10 10 -10 13 0 13 37 0 45 -6 4
-8 10 -5 15 5 9 16 82 16 112 0 9 7 19 15 22 12 4 14 1 9 -14 -3 -11 -2 -27 3
-36 6 -11 9 1 9 42 1 33 4 80 8 107 7 44 6 47 -14 47 -17 0 -21 6 -21 34 0 18
3 49 7 67 l7 34 7 -30 c5 -25 7 -22 8 20 0 36 -2 46 -9 35 -7 -11 -10 1 -10
40 0 35 3 50 9 41 5 -7 6 -22 4 -32 -3 -10 0 -19 6 -19 7 0 11 20 11 50 0 28
5 50 10 50 6 0 10 30 10 69 0 39 -4 73 -10 76 -5 3 -10 -3 -10 -14 0 -12 -5
-21 -11 -21 -7 0 -9 58 -7 180 2 99 0 180 -4 180 -5 0 -8 20 -8 44 l0 44 -37
-3 c-21 -1 -56 -8 -78 -14 -47 -12 -88 -14 -81 -3 2 4 -21 9 -52 10 -31 2 -60
6 -66 9 -5 4 -21 7 -36 8 -14 1 -37 6 -50 10 -16 4 -21 4 -15 -2z"/>
<path d="M2535 3763 c-60 -8 -111 -16 -113 -18 -2 -2 1 -13 8 -24 9 -17 8 -21
-6 -21 -9 0 -18 10 -21 21 -6 20 -11 21 -64 15 -38 -3 -84 -18 -129 -41 -72
-36 -78 -43 -59 -62 8 -8 8 -17 0 -31 -6 -11 -11 -34 -11 -50 0 -17 -6 -32
-12 -35 -7 -2 -62 -1 -123 4 -60 4 -195 13 -299 19 -105 6 -199 13 -211 16
-19 5 -21 2 -17 -24 3 -26 7 -29 50 -30 76 -4 405 -32 427 -37 11 -2 76 -5
145 -6 69 0 179 -7 245 -15 66 -7 129 -13 140 -14 19 -1 19 -1 2 -14 -16 -12
-16 -14 -2 -20 15 -5 14 -9 -2 -36 -17 -29 -43 -41 -43 -20 0 6 -15 9 -32 8
-25 -2 -32 1 -30 12 3 11 -2 10 -17 -4 -20 -18 -22 -18 -41 -1 -11 10 -20 13
-20 7 0 -17 -25 -15 -40 3 -9 10 -9 15 -1 15 6 0 11 4 11 9 0 14 -81 23 -95
11 -9 -8 -15 -8 -20 0 -11 17 -37 11 -42 -10 -7 -25 -38 -26 -52 -2 -10 16
-10 16 -11 0 0 -10 -8 -18 -17 -18 -28 0 17 -29 47 -31 24 -1 24 -1 3 -7 -40
-12 -11 -33 43 -32 68 1 148 -10 155 -22 4 -6 12 -7 18 -4 19 12 3 24 -38 31
-22 4 -41 12 -44 18 -5 13 92 14 192 2 83 -10 83 -10 76 -74 -4 -31 -8 -81
-10 -111 -2 -30 -3 -58 -4 -62 -1 -4 -8 -5 -16 -2 -8 3 -45 7 -82 8 -38 1 -99
10 -138 20 -109 29 -117 35 -52 35 33 1 56 5 52 10 -3 5 11 15 30 22 46 17 45
27 -2 24 -21 -1 -54 -3 -73 -4 -27 -1 -31 -4 -20 -11 11 -7 1 -10 -35 -10 -45
-1 -48 -2 -32 -14 25 -19 14 -23 -73 -25 -407 -11 -573 -20 -585 -33 -7 -7 2
-9 30 -5 22 3 63 2 90 -3 28 -4 41 -8 30 -9 -15 -1 -9 -8 23 -27 28 -17 40
-30 34 -36 -6 -6 -22 -2 -43 11 -19 12 -49 21 -66 21 -32 0 -33 -1 -33 -44 0
-28 6 -48 16 -57 14 -12 12 -15 -17 -25 -43 -16 -62 -17 -54 -4 3 6 2 10 -3
10 -6 0 -13 -7 -16 -16 -4 -10 -13 -13 -24 -10 -13 5 -22 -1 -30 -19 -13 -27
-31 -32 -50 -13 -9 9 -12 3 -12 -30 0 -27 5 -45 14 -48 7 -3 19 -23 26 -45 14
-40 26 -55 63 -74 12 -6 23 -19 25 -30 2 -11 17 -32 35 -47 17 -16 27 -28 21
-28 -5 0 -15 5 -22 12 -8 8 -12 8 -12 1 0 -15 24 -23 49 -16 11 3 28 2 37 -1
15 -6 15 -8 -1 -26 -10 -11 -24 -16 -33 -13 -13 4 -14 3 -6 -6 8 -9 17 -9 37
0 46 21 53 9 61 -92 4 -52 10 -96 14 -99 11 -8 52 -68 52 -77 0 -4 -5 -2 -11
4 -7 7 -18 8 -28 3 -9 -4 -28 -13 -43 -19 -25 -9 -28 -16 -28 -56 0 -25 -5
-45 -11 -45 -5 0 -7 5 -4 10 3 6 0 10 -8 10 -10 0 -16 18 -21 60 -8 67 -19 81
-144 174 -74 55 -133 79 -140 57 -7 -20 -22 -12 -22 12 0 13 -9 32 -19 41 -18
17 -19 17 -24 -1 -4 -16 -5 -16 -6 0 -1 18 -37 24 -43 7 -5 -17 -66 18 -73 41
-6 17 -12 20 -38 15 -18 -4 -92 -9 -165 -13 l-132 -6 0 -43 0 -44 -229 0 -229
0 -42 -47 c-134 -153 -198 -374 -187 -648 3 -77 13 -170 21 -206 31 -133 96
-261 178 -351 l33 -36 205 -6 c113 -3 215 -6 228 -6 18 0 22 -6 23 -32 1 -61
4 -63 119 -64 210 -1 401 -76 696 -270 161 -107 413 -221 581 -264 29 -8 54
-20 57 -29 3 -9 9 -22 12 -30 5 -10 0 -13 -19 -9 -15 3 -24 1 -21 -3 9 -15 61
-10 74 6 9 10 9 15 1 15 -6 0 -11 4 -11 9 0 5 28 7 63 5 34 -2 53 -1 42 2 -70
18 -135 55 -135 75 0 4 21 2 48 -6 70 -22 74 -17 11 15 -91 47 -110 87 -24 50
26 -11 49 -19 51 -17 2 2 -17 20 -41 41 -51 42 -65 82 -17 48 29 -21 107 -62
118 -62 3 0 -23 19 -57 43 -61 40 -100 88 -79 95 6 2 29 -11 53 -29 70 -54 74
-55 31 -8 -42 44 -81 109 -67 109 5 0 45 -35 91 -78 66 -63 85 -76 94 -65 8
10 7 12 -4 8 -31 -12 -159 158 -146 195 2 6 20 -11 41 -37 60 -74 127 -143
139 -143 6 0 28 -5 49 -12 44 -13 48 -29 19 -73 -37 -56 -20 -93 42 -93 30 1
38 18 38 91 0 40 3 49 23 56 33 12 129 12 144 -1 20 -16 16 -40 -5 -34 -11 4
-22 -2 -30 -15 -11 -18 -10 -23 12 -40 14 -11 28 -28 31 -39 9 -27 60 -27 75
0 8 16 5 30 -15 67 -14 26 -25 51 -25 55 0 3 24 14 54 22 56 16 112 63 189
155 24 30 37 39 37 27 0 -31 -41 -98 -92 -149 -39 -39 -52 -47 -59 -36 -5 8
-9 9 -9 3 0 -6 7 -17 15 -24 12 -10 15 -10 16 1 0 8 36 45 80 82 66 57 79 65
79 47 0 -11 -21 -44 -47 -72 l-48 -51 55 37 c44 29 56 33 58 21 5 -22 -7 -34
-77 -80 -33 -22 -59 -41 -57 -42 1 -2 33 13 71 32 38 19 71 32 74 29 4 -4 -16
-26 -44 -50 l-50 -45 50 16 c28 8 54 15 59 15 20 0 -21 -32 -78 -61 -62 -31
-59 -32 34 -13 17 4 30 2 30 -3 0 -15 -55 -42 -117 -57 l-58 -14 75 -2 c62 -1
71 -3 53 -12 -13 -6 -23 -15 -23 -20 0 -5 9 -4 21 2 11 7 27 9 35 6 10 -4 14
2 14 18 0 21 7 26 53 36 176 42 476 168 608 257 121 81 323 184 388 197 9 2
23 6 31 9 8 4 42 14 75 23 63 16 295 32 283 19 -4 -4 -41 -7 -82 -6 -41 1 -77
-3 -81 -8 -3 -6 -12 -8 -20 -4 -8 3 -15 0 -15 -7 0 -9 11 -10 38 -5 53 10 164
13 150 3 -7 -4 8 -7 35 -6 l47 2 0 45 c0 54 -10 50 -12 -5 -1 -21 -3 -33 -6
-26 -3 10 -7 10 -18 1 -10 -8 -14 -8 -14 0 0 6 5 11 10 11 6 0 10 23 10 50 l0
50 239 0 239 0 34 38 c87 96 150 217 184 350 21 82 24 118 24 269 0 125 -5
195 -17 251 -9 42 -17 87 -17 99 -1 12 -3 20 -5 17 -2 -2 -23 36 -47 84 -24
48 -62 111 -86 139 l-43 53 -146 0 c-80 0 -187 3 -237 6 l-92 7 0 47 0 48 -62
-5 c-77 -6 -183 8 -283 38 -58 17 -75 26 -75 40 0 11 -7 19 -15 19 -8 0 -15
-4 -15 -9 0 -4 -12 -7 -27 -5 -15 1 -36 -4 -47 -12 -23 -16 -96 -17 -166 -4
-34 7 -22 8 48 4 89 -5 95 -4 123 21 21 17 42 25 69 25 32 0 43 5 62 33 47 63
51 81 44 166 -9 115 -6 111 -92 111 l-74 0 -20 -40 c-23 -45 -27 -79 -4 -37
49 90 84 -69 39 -178 -32 -78 -68 -59 -69 35 -1 38 -4 53 -10 43 -7 -12 -20
-14 -75 -8 -36 3 -73 8 -82 11 -12 3 -18 -5 -23 -33 -3 -21 -15 -49 -25 -62
-18 -24 -18 -24 8 -48 l26 -24 -31 6 c-19 4 -69 -4 -129 -20 -54 -14 -144 -35
-199 -46 -56 -11 -130 -34 -166 -51 -36 -17 -81 -35 -100 -39 -19 -4 -66 -15
-105 -24 -110 -25 -119 -25 -125 -2 -4 15 -17 24 -43 29 -64 13 -77 24 -70 58
5 26 2 30 -15 30 -19 0 -20 5 -16 73 5 81 0 94 -40 101 -36 7 -44 15 -26 26
12 8 10 10 -8 10 -19 0 -21 3 -12 19 16 32 12 41 -20 41 -23 0 -28 4 -23 16 4
11 9 12 16 5 13 -13 87 -15 87 -3 0 4 -21 14 -47 20 -34 9 -43 16 -33 22 10 6
16 45 21 142 12 201 16 241 24 261 4 9 4 28 1 42 -6 24 -8 25 -76 20 -43 -3
-70 -1 -70 5 0 6 5 10 10 10 6 0 10 9 10 21 0 12 8 23 20 26 25 7 26 23 1 23
-34 0 -33 50 3 79 13 11 19 11 31 1 27 -23 53 -3 64 51 6 27 11 61 11 74 0 13
5 27 10 30 6 4 8 10 5 15 -3 4 2 27 10 50 8 24 13 45 11 47 -3 3 -54 5 -116 3
-14 0 -43 1 -65 4 -22 2 -89 -2 -150 -11z m202 -915 c7 -1 2 -14 -11 -32 -13
-17 -26 -43 -28 -58 -5 -24 -2 -28 18 -28 12 0 26 -4 29 -10 3 -5 12 -10 18
-10 7 0 6 4 -3 10 -8 5 -12 12 -9 15 9 9 44 -8 47 -23 2 -10 -12 -12 -55 -10
l-58 3 -10 -61 c-11 -69 -32 -77 -27 -11 3 29 -5 69 -22 118 -15 41 -29 82
-33 91 -5 16 1 17 63 12 38 -3 74 -6 81 -6z m-471 -86 c49 -25 85 -64 116
-122 19 -37 23 -59 22 -130 -1 -101 -22 -156 -85 -225 -39 -42 -45 -45 -92
-45 l-51 0 22 20 c12 12 22 22 22 25 0 5 -73 -16 -85 -25 -27 -20 -54 -17 -70
6 -8 13 -24 24 -35 24 -26 0 -25 -14 3 -33 21 -15 20 -16 -34 -16 -62 -1 -81
12 -117 84 -28 57 -35 113 -22 186 14 78 38 126 90 180 22 23 46 52 55 65 11
18 26 24 67 27 87 7 153 0 194 -21z m-1941 -552 c-3 -5 -1 -10 4 -10 6 0 11 5
11 10 0 6 4 10 10 10 6 0 6 -9 -1 -26 -8 -24 -8 -25 6 -14 12 10 15 10 15 -4
0 -9 -6 -16 -14 -16 -8 0 -22 -7 -31 -16 -8 -9 -22 -13 -30 -10 -9 3 -12 0 -8
-9 3 -8 9 -12 14 -9 5 3 9 1 9 -5 0 -5 -6 -11 -12 -14 -9 -3 -7 -9 7 -20 11
-8 23 -13 27 -11 4 3 5 -1 2 -9 -3 -8 9 -35 27 -60 17 -25 30 -50 28 -55 -2
-6 -26 1 -58 16 -50 25 -54 25 -66 9 -13 -19 -32 -6 -20 13 3 6 1 10 -4 10
-12 0 -14 179 -2 198 8 13 49 30 74 31 10 1 15 -3 12 -9z m499 -5 c-4 -8 -1
-15 6 -15 6 0 10 -6 8 -12 -3 -7 -11 -13 -19 -13 -8 0 -29 -9 -47 -21 -33 -22
-79 -26 -75 -8 1 6 -5 11 -13 11 -7 0 -14 -4 -14 -9 0 -4 -9 -8 -20 -8 -11 0
-20 6 -20 13 0 9 -2 9 -9 -1 -6 -10 -10 -9 -14 7 -3 14 -13 21 -29 20 l-23 0
23 -11 c29 -14 28 -23 -3 -24 -15 -1 -25 3 -25 12 0 8 -5 14 -12 14 -8 0 -6 6
4 17 15 14 21 15 44 4 24 -10 31 -9 55 8 26 19 73 26 62 9 -2 -5 -13 -6 -24
-3 -11 4 -19 2 -19 -4 0 -6 9 -11 19 -11 11 0 21 -5 23 -12 3 -7 11 2 19 20
13 30 18 32 61 32 38 0 46 -3 42 -15z m1202 -5 l244 0 0 -50 0 -51 -187 1
c-104 0 -198 1 -210 0 -22 0 -23 -3 -23 -105 l0 -105 128 -1 c70 -1 136 -2
147 -3 11 -1 35 -3 53 -4 31 -2 32 -3 32 -47 l0 -45 -180 0 -180 0 0 -115 0
-114 98 -3 c71 -2 96 -6 94 -15 -3 -18 15 -16 22 2 6 17 91 22 100 6 3 -5 -6
-25 -20 -46 l-25 -37 30 4 c17 3 31 1 31 -4 0 -4 -36 -8 -80 -8 -66 0 -78 2
-74 15 4 9 0 15 -10 15 -10 0 -13 -6 -9 -15 5 -14 -14 -16 -151 -14 -86 0
-156 4 -156 7 0 4 13 31 29 60 16 28 26 52 21 52 -13 0 -21 31 -12 44 5 6 9
22 10 36 1 14 4 36 7 50 5 22 4 23 -7 9 -18 -22 -62 -36 -55 -18 2 8 10 13 16
11 6 -1 11 4 11 12 0 7 9 16 19 19 14 3 18 11 14 26 l-5 22 -35 -21 -35 -21 7
28 c3 15 7 38 8 51 1 12 7 22 14 22 6 0 15 10 19 23 7 24 39 59 47 51 3 -3 8
-1 12 5 4 7 -4 11 -19 11 -17 0 -26 -6 -26 -16 0 -9 -5 -12 -12 -8 -6 4 -8 3
-5 -3 11 -18 -18 -36 -32 -20 -8 11 -5 17 14 27 14 7 25 19 25 27 0 7 9 12 23
10 16 -1 21 3 19 16 -2 9 2 17 8 17 5 0 10 7 10 16 0 8 5 12 10 9 6 -3 10 1
10 10 0 9 -4 14 -9 11 -5 -3 -14 8 -22 25 -11 28 -10 33 5 44 13 10 14 14 4
18 -10 4 -10 8 2 17 12 9 10 10 -10 4 -44 -12 -79 -34 -76 -47 1 -6 1 -9 -1
-4 -3 4 -11 7 -19 7 -18 0 -18 10 2 50 13 26 14 34 4 40 -17 11 24 19 64 14
16 -2 138 -4 272 -4z m787 -10 c284 0 327 -2 327 -15 0 -8 5 -15 11 -15 5 0 7
5 4 10 -3 6 1 10 9 10 9 0 13 -6 10 -14 -3 -7 2 -16 10 -19 9 -4 16 -1 16 5 0
8 3 9 10 2 13 -13 24 -94 13 -94 -4 0 -8 -54 -8 -121 0 -118 0 -120 -25 -134
-14 -8 -62 -17 -107 -22 l-83 -8 78 -99 c169 -217 172 -221 154 -227 -9 -3
-61 -4 -117 -1 -112 5 -106 1 -183 105 -24 31 -40 62 -36 69 4 7 3 8 -4 4 -7
-4 -38 29 -77 80 -50 67 -65 95 -65 121 l0 33 120 0 120 0 -2 117 -3 117 -153
3 -152 4 0 -326 0 -325 -87 4 c-49 2 -103 5 -120 5 l-33 1 0 371 0 371 23 -6
c12 -3 169 -6 350 -6z m1351 -28 l31 -18 3 -156 c3 -200 3 -200 -124 -206 -49
-2 -92 -7 -96 -11 -4 -4 5 -22 20 -41 31 -38 58 -97 49 -106 -11 -12 -136 67
-154 96 -18 32 -45 48 -51 31 -2 -6 -8 -11 -13 -11 -5 0 -3 10 6 23 8 13 12
26 9 30 -4 3 -4 14 0 23 5 12 9 14 20 5 10 -9 16 -8 26 4 11 13 10 14 -4 9 -9
-3 -16 -1 -16 5 0 6 19 11 45 11 l46 0 -3 118 -3 117 -30 2 c-16 0 -83 2 -148
2 l-118 1 3 24 c1 13 -4 31 -11 40 -10 12 -11 20 -4 24 6 4 118 6 249 4 207
-2 242 -5 268 -20z m743 -9 c6 -16 41 -102 78 -192 47 -117 65 -172 60 -190
-3 -16 -2 -21 3 -13 6 9 14 1 26 -27 10 -21 16 -44 12 -49 -3 -5 0 -15 7 -21
17 -13 74 -144 92 -208 6 -23 6 -23 -109 -23 l-114 0 -22 66 c-12 36 -27 67
-34 69 -6 2 -75 6 -153 7 l-142 4 -26 -72 -26 -72 -107 0 c-59 0 -112 3 -118
7 -7 4 5 45 38 122 49 113 51 116 79 113 25 -3 27 -1 17 10 -7 8 -16 12 -20 9
-5 -2 -8 0 -8 5 0 12 99 15 114 4 6 -5 20 -12 31 -15 19 -7 19 -6 -1 11 -11 9
-19 23 -16 30 4 14 -10 16 -24 2 -6 -6 -15 -6 -24 0 -12 8 -10 10 8 10 12 0
22 5 22 11 0 6 -7 8 -16 5 -10 -4 -15 -1 -13 12 1 9 -3 30 -9 45 -13 32 -15
47 -4 31 4 -6 38 -26 76 -45 37 -19 72 -43 76 -54 9 -23 -16 -79 -30 -70 -6 4
-20 -1 -32 -11 -23 -16 -22 -16 12 -8 40 9 94 12 199 13 67 1 73 3 68 20 -3
15 -1 18 11 14 10 -4 13 -2 8 5 -4 7 -2 12 4 12 6 0 -3 20 -20 44 -16 25 -30
51 -30 58 0 11 -2 11 -9 0 -5 -9 -15 5 -29 45 -12 32 -24 67 -25 78 -6 29 -18
55 -27 55 -8 0 -24 -58 -21 -74 1 -5 -5 -6 -14 -2 -19 7 -31 -19 -17 -37 7 -7
7 -18 2 -27 -6 -10 -10 -2 -15 26 -4 21 -8 43 -9 48 -1 6 -11 1 -22 -10 -22
-21 -84 -47 -84 -34 0 5 3 10 8 13 4 2 1 2 -6 0 -8 -1 -20 -3 -28 -3 -8 0 -11
-6 -8 -15 4 -8 11 -12 17 -8 6 3 7 1 3 -5 -7 -12 -56 -17 -56 -6 0 5 99 237
122 286 l13 28 125 0 126 0 11 -27z m-1323 -6 c7 -7 10 -19 8 -27 -3 -8 5 -4
16 10 l21 25 1 -22 c0 -13 4 -23 8 -23 15 0 16 -30 14 -288 -1 -112 -5 -201
-9 -199 -5 3 -7 -37 -5 -88 l3 -92 -103 4 c-57 2 -109 5 -115 5 -15 2 -18 143
-4 152 5 4 11 2 13 -4 1 -5 23 6 48 26 l45 35 17 -21 c18 -23 25 -66 9 -56 -5
3 -12 -2 -16 -11 -3 -10 -1 -19 5 -21 8 -3 8 -8 0 -17 -8 -9 -8 -15 0 -20 5
-3 10 -1 10 5 0 16 43 29 58 17 7 -5 16 -7 19 -3 4 4 1 11 -6 15 -9 6 -12 19
-9 36 4 20 -2 34 -25 58 -16 18 -27 26 -23 20 10 -18 -12 -16 -30 2 -9 8 -25
15 -36 15 -16 0 -18 -3 -9 -14 13 -16 -1 -30 -29 -31 -8 0 -14 -6 -12 -13 1
-8 -3 -12 -10 -10 -22 8 -18 23 9 40 16 10 23 18 16 18 -6 0 -15 -4 -18 -10
-3 -5 -12 -10 -18 -10 -10 0 -12 48 -11 202 2 174 4 202 18 210 9 5 13 14 10
20 -5 8 3 9 26 5 30 -6 32 -5 26 16 -3 12 -1 29 4 37 8 12 15 13 40 3 27 -10
30 -10 20 3 -16 18 5 20 24 1z m-3124 -489 c0 -37 5 -70 11 -73 5 -4 74 -10
152 -13 l141 -7 41 27 c22 15 40 33 40 40 0 7 7 13 15 13 26 0 21 -38 -13
-100 l-33 -60 -205 2 c-112 1 -212 2 -221 3 -12 0 -15 5 -11 16 4 11 8 12 13
4 6 -9 9 -9 15 -1 4 7 -1 24 -11 39 -10 15 -17 31 -16 35 3 10 -31 5 -39 -7
-9 -11 -71 3 -64 15 4 5 -1 6 -10 3 -13 -5 -12 -9 6 -25 11 -10 18 -23 14 -28
-10 -17 -25 -13 -19 4 4 9 0 15 -9 15 -8 0 -18 -6 -20 -12 -3 -7 -6 31 -6 85
l-1 98 115 -3 115 -3 0 -67z m1548 -346 c-3 -14 -16 -17 -86 -17 -45 0 -82 -3
-82 -7 0 -5 0 -24 0 -43 l0 -35 70 0 c55 0 70 -3 70 -15 0 -11 -17 -15 -72
-17 -70 -3 -71 -4 -75 -31 -4 -30 12 -58 31 -56 6 1 41 1 79 0 60 -1 67 -3 67
-21 0 -20 -5 -21 -77 -16 -43 2 -104 5 -136 5 l-58 1 2 101 c1 75 5 102 15
106 8 3 14 10 14 15 0 6 -6 5 -15 -2 -12 -10 -15 -10 -15 3 0 41 7 43 141 45
118 1 130 0 127 -16z m164 3 c4 -5 8 -58 8 -117 l0 -107 77 -3 c65 -3 78 -6
81 -20 3 -16 -8 -18 -127 -18 l-131 0 0 133 c0 74 2 136 4 138 9 9 81 4 88 -6z
m320 -20 c3 -13 4 -42 4 -62 -1 -21 -3 -71 -4 -110 l-2 -73 -45 0 -45 0 -2 48
c-2 58 5 202 11 220 1 1 18 2 40 2 33 0 39 -3 43 -25z m194 -65 c18 -47 34
-86 34 -87 0 -9 20 -1 20 7 0 6 16 44 35 85 l35 75 44 0 c45 0 45 0 35 -27 -6
-16 -34 -75 -62 -133 l-52 -105 -43 -1 c-23 0 -46 4 -51 10 -9 13 -121 253
-121 262 0 3 21 4 46 2 l46 -3 34 -85z m544 65 c0 -17 -8 -18 -102 -15 l-68 2
0 -41 c0 -41 0 -41 38 -41 63 0 112 -12 112 -26 0 -11 -18 -14 -75 -14 l-75 0
0 -46 0 -45 88 2 c69 2 87 -1 87 -12 0 -11 -28 -15 -137 -17 l-138 -3 0 136 0
135 135 0 c113 0 135 -2 135 -15z m344 9 l46 -7 0 -65 c0 -63 0 -64 -25 -60
-13 3 -22 1 -19 -3 3 -5 -4 -9 -15 -9 -31 0 -26 -11 29 -65 28 -27 50 -53 50
-57 0 -9 -56 -9 -86 0 -25 8 -124 119 -124 140 0 11 10 14 50 10 l50 -5 0 42
0 43 -55 7 c-30 3 -60 3 -66 0 -5 -4 -10 -30 -9 -59 1 -28 1 -79 1 -113 l-1
-63 -51 0 c-48 0 -51 1 -45 23 3 12 6 73 6 135 l0 112 109 0 c59 0 129 -3 155
-6z m-1944 -91 c0 -7 7 -13 15 -13 11 0 15 -12 15 -50 0 -76 -20 -85 -175 -80
-48 1 -49 2 -25 15 14 7 27 12 31 9 3 -2 22 1 42 7 l37 10 0 59 c0 42 5 63 17
75 16 16 17 16 30 -1 7 -10 13 -24 13 -31z"/>
<path d="M1131 3651 c-30 -15 -84 -55 -120 -88 -36 -32 -74 -62 -83 -66 -26
-9 -84 -104 -107 -172 -52 -157 -31 -297 67 -455 33 -54 109 -140 123 -140 4
0 7 20 7 43 0 32 9 57 31 92 37 58 40 104 10 152 -12 19 -19 37 -15 40 3 3 1
14 -5 25 -8 15 -5 25 15 49 24 29 26 38 27 142 1 172 8 194 85 275 24 26 44
50 44 54 0 4 7 14 16 22 13 14 14 16 0 16 -21 0 -31 21 -15 31 11 7 9 9 -6 9
-11 0 -44 -13 -74 -29z"/>
<path d="M3080 3460 c0 -6 -18 -7 -44 -4 l-44 6 -3 -51 -4 -51 35 -1 c28 0 31
-2 15 -8 -11 -5 -26 -6 -32 -4 -10 4 -13 -9 -11 -48 1 -45 2 -48 5 -15 l4 38
47 -7 c26 -4 52 -11 57 -15 7 -6 11 0 13 16 2 21 -1 24 -18 19 -11 -3 -20 -2
-20 4 0 5 8 12 19 16 13 4 20 19 25 51 3 25 3 50 0 55 -7 12 -44 11 -44 -1z"/>
<path d="M1131 3385 c-10 -48 -13 -95 -11 -170 1 -11 -3 -42 -9 -70 -12 -62
-14 -235 -2 -254 5 -7 14 -10 20 -7 6 4 11 0 11 -9 0 -9 4 -14 9 -11 5 4 11 2
13 -3 1 -5 12 -11 23 -13 11 -1 25 -10 32 -18 7 -8 13 -11 13 -6 0 5 7 3 15
-4 8 -7 15 -9 15 -4 0 5 4 2 10 -6 5 -8 12 -12 15 -8 9 9 13 348 4 354 -4 2
-10 -2 -12 -8 -3 -7 -6 -1 -6 15 -1 15 -5 27 -10 27 -5 0 -9 -14 -9 -30 1 -17
-2 -33 -5 -36 -3 -3 -7 28 -9 70 -2 42 0 76 5 76 6 0 12 -41 8 -62 0 -5 4 -8
9 -8 6 0 10 7 10 15 0 8 4 15 9 15 4 0 7 -13 5 -30 -2 -16 0 -30 5 -30 5 0 9
42 9 93 0 65 -2 82 -8 57 -6 -28 -16 -26 -11 3 0 4 -3 7 -8 7 -5 0 -17 7 -25
16 -14 14 -16 14 -16 0 0 -10 -6 -13 -15 -10 -10 4 -15 0 -15 -11 0 -9 4 -14
9 -11 5 3 11 -3 14 -15 4 -16 3 -18 -9 -8 -12 9 -14 6 -14 -21 0 -19 -3 -31
-6 -27 -4 3 -6 26 -6 51 1 30 -3 46 -13 50 -8 3 -15 4 -15 2 0 -3 -3 -11 -6
-20 -4 -11 0 -16 11 -16 17 0 17 -2 3 -17 -9 -10 -18 -25 -21 -33 -2 -8 -3 -4
-2 10 3 26 -11 133 -14 115z"/>
<path d="M4606 3318 c18 -104 19 -149 9 -227 -11 -77 -44 -168 -58 -155 -2 3
-7 -7 -11 -21 -4 -14 -11 -25 -16 -25 -6 0 -10 -5 -10 -12 0 -6 -7 -20 -17
-30 -10 -11 -12 -18 -4 -18 9 0 9 -5 0 -22 -7 -13 -11 -25 -10 -28 1 -2 -2 -6
-8 -8 -6 -2 -11 2 -11 9 0 7 -9 3 -21 -9 -11 -12 -17 -26 -14 -31 3 -5 0 -13
-6 -17 -8 -5 -9 -3 -4 7 5 8 -12 -4 -37 -26 -25 -22 -47 -46 -47 -52 -1 -16
25 -17 35 -1 5 8 1 9 -12 4 -18 -7 -18 -6 -1 11 13 13 20 15 25 6 5 -8 13 -6
29 7 12 9 19 21 15 25 -4 5 1 5 10 2 10 -3 17 -3 17 1 -4 27 5 44 27 52 29 11
63 48 64 68 0 7 7 15 16 19 8 3 20 15 25 27 5 11 21 40 35 64 14 24 23 50 20
58 -3 8 -2 13 3 9 23 -14 49 234 29 282 -6 16 -10 35 -9 43 1 9 -6 5 -18 -9
l-19 -25 -4 24 c-1 13 -8 25 -15 27 -9 3 -11 -5 -7 -29z"/>
<path d="M3639 3022 c-11 -7 -19 -18 -19 -24 0 -6 -8 -20 -17 -30 -15 -17 -15
-21 -3 -29 13 -8 13 -10 0 -18 -8 -5 -18 -7 -24 -4 -5 3 -6 1 -2 -5 10 -16 25
-15 59 3 l28 15 -6 -32 c-7 -30 -6 -30 20 -24 24 6 27 5 22 -13 -4 -17 0 -21
19 -21 13 0 24 5 24 10 0 6 -5 10 -11 10 -5 0 -7 5 -4 10 3 6 31 10 60 10 44
0 53 -3 49 -15 -4 -10 0 -15 10 -15 11 0 16 7 14 18 -3 14 4 17 37 14 38 -2
39 -2 16 11 -32 19 -15 28 51 29 56 0 92 10 114 32 23 24 28 22 -73 32 -53 5
-62 9 -65 28 -4 28 -57 34 -92 10 -19 -11 -30 -13 -39 -6 -19 16 -147 19 -168
4z"/>
<path d="M3255 2628 c-3 -35 -8 -70 -11 -79 -4 -13 6 -18 45 -23 28 -4 53 -11
56 -16 7 -11 55 8 55 22 0 4 9 8 21 8 12 0 17 4 14 11 -4 6 -13 8 -21 5 -10
-4 -12 2 -8 23 5 23 2 29 -15 34 -12 3 -21 2 -21 -2 0 -14 -51 -31 -74 -25
-22 5 -23 7 -9 45 14 42 11 59 -12 59 -9 0 -15 -20 -20 -62z"/>
</g>
</svg>
